#!OML:ASF F:\VICON\USERDATA\INSTALL\rory3\rory3.ASF
:FULLY-SPECIFIED
:DEGREES
1082
root 0.139695 19.3668 6.77528 18.3752 -6.32602 -4.1062
lowerback -11.7272 -0.740695 4.98719
upperback -7.06594 -1.49745 1.4964
thorax -0.917041 -0.889314 -1.40366
lowerneck -8.12463 -12.7176 -14.0179
upperneck 16.075 -16.3819 5.55636
head 7.92353 -8.26567 2.29344
rclavicle -1.63392e-014 1.47598e-014
rhumerus -39.9277 14.222 -91.6401
rradius 38.047
rwrist 7.82125
rhand -23.745 -49.0834
rfingers 7.12502
rthumb 2.72363 -79.0458
lclavicle -1.63392e-014 1.47598e-014
lhumerus -52.0484 -9.31999 79.109
lradius 44.0981
lwrist 3.18414
lhand -36.3372 -41.4998
lfingers 7.12502
lthumb -9.43519 -11.731
rfemur -32.5786 5.48758 14.8493
rtibia 37.0636
rfoot 5.2351 -2.01531
rtoes -22.9705
lfemur -26.8754 -0.508937 -6.90578
ltibia 32.1836
lfoot 7.31622 4.06342
ltoes -19.3051
1083
root 0.14656 19.1674 6.72859 18.5403 -6.10352 -4.20179
lowerback -11.4452 -0.843829 5.16556
upperback -7.06656 -1.63225 1.51853
thorax -1.08442 -0.965668 -1.48719
lowerneck -8.51559 -12.7263 -13.8209
upperneck 15.9473 -16.3616 5.57801
head 7.93042 -8.23141 2.25506
rclavicle 6.36965e-014 -1.75924e-014
rhumerus -39.7546 14.1439 -91.5697
rradius 37.9425
rwrist 8.00118
rhand -25.9462 -46.802
rfingers 7.12502
rthumb 0.597722 -76.7809
lclavicle 6.36965e-014 -1.75924e-014
lhumerus -51.964 -8.97822 78.9136
lradius 44.11
lwrist 3.43716
lhand -36.3157 -41.679
lfingers 7.12502
lthumb -9.41441 -11.9093
rfemur -32.9603 5.38019 14.9003
rtibia 37.3706
rfoot 4.62736 -1.67373
rtoes -25.3195
lfemur -27.6912 -0.323246 -6.7427
ltibia 33.3278
lfoot 6.92877 3.46123
ltoes -19.8174
1084
root 0.132984 18.9392 6.67358 18.6582 -6.30823 -3.874
lowerback -10.9424 -0.915681 4.46307
upperback -7.19513 -1.62917 1.51944
thorax -1.46477 -0.951192 -1.07934
lowerneck -8.71021 -12.7584 -13.8102
upperneck 15.8436 -16.3688 5.56228
head 7.92776 -8.229 2.23767
rclavicle -1.57009e-014 -1.26228e-014
rhumerus -39.6598 14.14 -91.4985
rradius 37.5505
rwrist 7.81165
rhand -26.9176 -46.4432
rfingers 7.12502
rthumb -0.340528 -76.4226
lclavicle -1.57009e-014 -1.26228e-014
lhumerus -52.1039 -8.76607 78.8753
lradius 44.3525
lwrist 3.74257
lhand -36.8546 -42.0331
lfingers 7.12502
lthumb -9.93434 -12.2875
rfemur -33.5911 5.84494 14.423
rtibia 37.8377
rfoot 4.49894 -1.78259
rtoes -27.5082
lfemur -28.546 0.0656382 -7.06535
ltibia 34.6679
lfoot 6.38206 2.93244
ltoes -20.8471
1085
root 0.142413 18.7197 6.63714 18.8613 -6.06501 -4.19494
lowerback -10.7658 -0.849852 4.91736
upperback -7.36843 -1.56283 1.60938
thorax -1.75437 -0.940034 -1.22602
lowerneck -8.29912 -12.7942 -14.1351
upperneck 15.5459 -16.4403 5.72328
head 7.8082 -8.27694 2.35564
rclavicle 2.9139e-014 -2.52953e-014
rhumerus -39.92 13.9167 -91.227
rradius 37.4141
rwrist 7.87223
rhand -25.5915 -48.2276
rfingers 7.12502
rthumb 0.940289 -78.2052
lclavicle 2.9139e-014 -2.52953e-014
lhumerus -52.421 -8.66087 78.9406
lradius 44.7206
lwrist 3.73368
lhand -37.2121 -41.7857
lfingers 7.12502
lthumb -10.2793 -12.0569
rfemur -34.0747 5.71581 14.7191
rtibia 38.4082
rfoot 4.29965 -2.04054
rtoes -27.5058
lfemur -29.446 0.513997 -6.77491
ltibia 36.1922
lfoot 5.78331 1.99975
ltoes -21.2757
1086
root 0.139999 18.4847 6.58566 19.0181 -6.00887 -4.65789
lowerback -10.2867 -0.857608 5.23859
upperback -7.3227 -1.56823 1.77135
thorax -1.97442 -0.95446 -1.22707
lowerneck -9.13837 -12.8602 -13.8011
upperneck 15.6564 -16.4189 5.48504
head 7.93644 -8.24442 2.18183
rclavicle -1.79124e-014 1.37161e-014
rhumerus -39.7601 14.0963 -91.1402
rradius 37.5218
rwrist 7.68555
rhand -25.3311 -49.1099
rfingers 7.12502
rthumb 1.19178 -79.0863
lclavicle -1.79124e-014 1.37161e-014
lhumerus -52.2285 -8.30605 78.7401
lradius 44.8886
lwrist 3.71692
lhand -37.3178 -41.408
lfingers 7.12502
lthumb -10.3813 -11.6843
rfemur -34.7353 6.23347 15.03
rtibia 39.1843
rfoot 4.39948 -3.1093
rtoes -25.4349
lfemur -30.4405 1.18787 -6.32664
ltibia 37.9273
lfoot 5.34964 0.846956
ltoes -20.5667
1087
root 0.138902 18.2323 6.51932 19.0586 -5.88215 -4.64559
lowerback -9.65244 -0.920093 5.18358
upperback -7.39051 -1.60041 1.76776
thorax -2.39201 -0.978369 -1.18584
lowerneck -9.23126 -12.8799 -13.7686
upperneck 15.4446 -16.4263 5.50151
head 7.88099 -8.24066 2.18128
rclavicle -6.50624e-014 2.32081e-014
rhumerus -39.9156 14.4473 -91.2606
rradius 37.6606
rwrist 6.73607
rhand -26.6882 -48.7605
rfingers 7.12502
rthumb -0.118964 -78.7402
lclavicle -6.50624e-014 2.32081e-014
lhumerus -52.1108 -8.22762 78.6584
lradius 44.8729
lwrist 3.76807
lhand -37.5093 -42.1254
lfingers 7.12502
lthumb -10.5659 -12.4109
rfemur -35.3714 6.51071 14.8971
rtibia 40.0952
rfoot 4.43988 -4.15505
rtoes -24.8488
lfemur -31.6087 1.63416 -6.36474
ltibia 39.9093
lfoot 3.99644 -0.17109
ltoes -21.3028
1088
root 0.14599 17.9585 6.45343 19.132 -5.67934 -4.6529
lowerback -9.14244 -0.951748 5.19519
upperback -7.41562 -1.60591 1.82507
thorax -2.69695 -0.986552 -1.12011
lowerneck -9.20497 -12.9274 -13.9597
upperneck 15.1327 -16.4573 5.57565
head 7.79929 -8.25748 2.23538
rclavicle -4.73892e-014 -3.8763e-015
rhumerus -39.9653 14.7366 -91.144
rradius 37.9637
rwrist 6.11715
rhand -27.2175 -49.1703
rfingers 7.12502
rthumb -0.630194 -79.1491
lclavicle -4.73892e-014 -3.8763e-015
lhumerus -51.8766 -8.1826 78.7292
lradius 44.9025
lwrist 3.79459
lhand -37.6166 -43.2569
lfingers 7.12502
lthumb -10.6695 -13.5478
rfemur -36.0785 6.50017 14.8362
rtibia 41.3381
rfoot 3.55731 -4.78524
rtoes -26.7189
lfemur -32.8707 2.08935 -6.45186
ltibia 42.1653
lfoot 0.39236 -0.597975
ltoes -25.4771
1089
root 0.154667 17.669 6.39276 19.1635 -5.53776 -4.91712
lowerback -8.48121 -0.953572 5.26747
upperback -7.46457 -1.56033 2.0753
thorax -3.10531 -0.96907 -0.880947
lowerneck -9.33538 -13.0095 -14.1819
upperneck 14.9276 -16.4882 5.51144
head 7.77079 -8.28267 2.23676
rclavicle 2.63475e-014 -9.14409e-015
rhumerus -39.8793 14.853 -90.6364
rradius 38.2113
rwrist 6.56151
rhand -25.7517 -50.3318
rfingers 7.12502
rthumb 0.785532 -80.3101
lclavicle 2.63475e-014 -9.14409e-015
lhumerus -51.785 -7.98872 78.8946
lradius 45.1729
lwrist 3.60699
lhand -37.4573 -43.5585
lfingers 7.12502
lthumb -10.5158 -13.8416
rfemur -36.7483 6.4331 15.113
rtibia 42.9301
rfoot -1.04297 -4.1295
rtoes -33.8898
lfemur -33.9917 2.81277 -6.35945
ltibia 44.6626
lfoot -4.70714 -0.46271
ltoes -26.3217
1090
root 0.157391 17.3785 6.33155 19.1475 -5.42031 -5.15912
lowerback -7.8838 -0.949179 5.37098
upperback -7.4137 -1.51622 2.19568
thorax -3.3796 -0.952458 -0.798121
lowerneck -9.49612 -13.1222 -14.127
upperneck 14.5916 -16.5957 5.45522
head 7.68714 -8.3277 2.19495
rclavicle 2.2827e-014 -1.2921e-015
rhumerus -39.4342 14.6655 -90.1273
rradius 38.1625
rwrist 7.1644
rhand -24.5239 -50.2994
rfingers 7.12502
rthumb 1.97143 -80.27
lclavicle 2.2827e-014 -1.2921e-015
lhumerus -51.5379 -7.81158 78.7644
lradius 45.6292
lwrist 3.24277
lhand -37.1743 -43.5842
lfingers 7.12502
lthumb -10.2428 -13.8536
rfemur -37.374 6.18047 15.5019
rtibia 44.8294
rfoot -6.16073 -5.96432
rtoes -33.431
lfemur -35.048 3.66192 -6.27867
ltibia 47.33
lfoot -9.25593 0.254336
ltoes -28.341
1091
root 0.160476 17.1026 6.26865 19.2551 -5.29592 -5.4295
lowerback -7.50123 -0.886503 5.69698
upperback -7.34282 -1.42215 2.18067
thorax -3.52416 -0.921394 -0.983252
lowerneck -9.5573 -13.2336 -13.8398
upperneck 14.1161 -16.7453 5.39292
head 7.52298 -8.38419 2.12594
rclavicle 6.11651e-015 -4.23411e-014
rhumerus -38.8465 14.3048 -89.7337
rradius 38.1949
rwrist 7.58231
rhand -24.0211 -49.3907
rfingers 7.12502
rthumb 2.45697 -79.3563
lclavicle 6.11651e-015 -4.23411e-014
lhumerus -51.1575 -7.66764 78.4034
lradius 46.1486
lwrist 2.69722
lhand -36.9772 -43.8757
lfingers 7.12502
lthumb -10.0526 -14.1358
rfemur -38.2118 5.71123 15.982
rtibia 46.9819
rfoot -9.17454 -8.37562
rtoes -38.2273
lfemur -36.3209 4.56969 -6.13318
ltibia 50.0122
lfoot -13.1638 1.54538
ltoes -29.9371
1092
root 0.163584 16.8385 6.19753 19.3829 -5.28042 -5.61918
lowerback -6.82735 -0.798492 5.89024
upperback -7.54388 -1.25048 2.16519
thorax -4.10986 -0.86086 -1.08121
lowerneck -8.8517 -13.2544 -13.9345
upperneck 13.3619 -16.8674 5.66635
head 7.20043 -8.44048 2.2744
rclavicle 1.22284e-014 2.78299e-015
rhumerus -38.8307 13.9797 -89.4343
rradius 38.5936
rwrist 7.95972
rhand -23.5991 -48.7873
rfingers 7.12502
rthumb 2.86457 -78.7478
lclavicle 1.22284e-014 2.78299e-015
lhumerus -51.0697 -7.48838 78.0967
lradius 46.6638
lwrist 2.1441
lhand -36.8062 -44.3471
lfingers 7.12502
lthumb -9.88771 -14.5993
rfemur -39.3835 5.29688 16.3453
rtibia 49.2904
rfoot -12.7837 -9.84556
rtoes -34.5221
lfemur -37.7671 5.51682 -6.06053
ltibia 52.5757
lfoot -16.8009 3.02265
ltoes -30.127
1093
root 0.160632 16.5869 6.11347 19.4285 -5.38048 -5.54689
lowerback -5.79687 -0.735573 5.65071
upperback -7.56074 -1.07852 2.10758
thorax -4.68679 -0.776724 -0.983362
lowerneck -8.82632 -13.3989 -13.9438
upperneck 12.5276 -17.0846 6.06728
head 6.98171 -8.51089 2.39507
rclavicle -9.68376e-015 5.2181e-015
rhumerus -38.3705 13.6619 -89.0882
rradius 39.0212
rwrist 7.78439
rhand -23.8997 -48.7862
rfingers 7.12502
rthumb 2.57425 -78.7504
lclavicle -9.68376e-015 5.2181e-015
lhumerus -50.2095 -7.24911 77.8048
lradius 46.8976
lwrist 1.99036
lhand -36.7336 -45.1683
lfingers 7.12502
lthumb -9.81766 -15.4172
rfemur -40.9075 4.94341 16.4156
rtibia 51.6599
rfoot -15.8717 -10.8011
rtoes -30.0347
lfemur -39.2135 6.37265 -6.23994
ltibia 54.9857
lfoot -19.7268 4.89367
ltoes -30.3206
1094
root 0.159102 16.355 6.02578 19.4388 -5.43936 -5.56016
lowerback -4.7299 -0.682216 5.46119
upperback -7.51056 -0.925701 2.05874
thorax -5.22043 -0.701212 -0.909401
lowerneck -8.8529 -13.4818 -13.6804
upperneck 11.576 -17.2271 6.39569
head 6.6977 -8.54017 2.46849
rclavicle -2.55795e-014 -2.9122e-014
rhumerus -37.6352 13.3717 -88.7856
rradius 39.207
rwrist 7.50207
rhand -24.4509 -49.3956
rfingers 7.12502
rthumb 2.04188 -79.3656
lclavicle -2.55795e-014 -2.9122e-014
lhumerus -49.1395 -7.04644 77.5278
lradius 46.971
lwrist 2.12351
lhand -36.8248 -46.4158
lfingers 7.12502
lthumb -9.90557 -16.6689
rfemur -42.6051 4.42845 16.6535
rtibia 54.0483
rfoot -18.8585 -11.3224
rtoes -25.5232
lfemur -40.6394 7.18866 -6.31203
ltibia 57.2776
lfoot -21.9449 6.92867
ltoes -29.5124
1095
root 0.167323 16.1285 5.94285 19.4097 -5.48374 -5.79716
lowerback -3.69769 -0.58134 5.59441
upperback -7.43571 -0.715664 2.05685
thorax -5.71789 -0.611633 -0.97168
lowerneck -9.08602 -13.5556 -13.367
upperneck 10.9941 -17.3302 6.56455
head 6.54606 -8.55771 2.46745
rclavicle -8.38002e-015 3.27995e-015
rhumerus -36.8147 13.2223 -88.3973
rradius 39.4121
rwrist 7.60889
rhand -24.6425 -50.5386
rfingers 7.12502
rthumb 1.85689 -80.5103
lclavicle -8.38002e-015 3.27995e-015
lhumerus -48.1089 -6.78762 77.2349
lradius 47.2535
lwrist 2.07776
lhand -36.9652 -47.9849
lfingers 7.12502
lthumb -10.0411 -18.2444
rfemur -44.1428 3.75595 17.2194
rtibia 56.5078
rfoot -21.5157 -11.9916
rtoes -20.8088
lfemur -42.0532 8.05348 -6.18358
ltibia 59.5375
lfoot -23.9299 8.24173
ltoes -27.1618
